HIERARCHY
ROOT Hips
{
  OFFSET 52.6681 96.6459 54.3921
  CHANNELS 6 Xposition Yposition Zposition Zrotation Xrotation Yrotation
  JOINT spine
  {
    OFFSET 0 8.13249 0.467659
    CHANNELS 3 Zrotation Xrotation Yrotation
    JOINT spine1
    {
      OFFSET 0 10.3498 0
      CHANNELS 3 Zrotation Xrotation Yrotation
      JOINT spine2
      {
        OFFSET 0 9.91699 0
        CHANNELS 3 Zrotation Xrotation Yrotation
        JOINT Neck
        {
          OFFSET 0 25.461 1.2139
          CHANNELS 3 Zrotation Xrotation Yrotation
          JOINT Head
          {
            OFFSET 0 7.69245 0
            CHANNELS 3 Zrotation Xrotation Yrotation
            End Site
            {
              OFFSET 0 18.62 -6.14063
            }
          }
        }
        JOINT RightShoulder
        {
          OFFSET -4.17575 10.7096 -0.581445
          CHANNELS 3 Zrotation Xrotation Yrotation
          JOINT RightArm
          {
            OFFSET 0 14.0466 0
            CHANNELS 3 Zrotation Xrotation Yrotation
            JOINT RightArmRoll
            {
              OFFSET 0 7.09098 0
              CHANNELS 3 Zrotation Xrotation Yrotation
              JOINT RightForeArm
              {
                OFFSET 0 20.6535 0
                CHANNELS 3 Zrotation Xrotation Yrotation
                JOINT RightForeArmRoll
                {
                  OFFSET 0 7.95718 0
                  CHANNELS 3 Zrotation Xrotation Yrotation
                  JOINT RightHand
                  {
                    OFFSET 0 15.9683 0
                    CHANNELS 3 Zrotation Xrotation Yrotation
                    End Site
                    {
                      OFFSET 0 0 0
                    }
                  }
                }
              }
            }
          }
        }
        JOINT LeftShoulder
        {
          OFFSET 4.17575 10.7096 -0.581445
          CHANNELS 3 Zrotation Xrotation Yrotation
          JOINT LeftArm
          {
            OFFSET 0 14.0466 0
            CHANNELS 3 Zrotation Xrotation Yrotation
            JOINT LeftArmRoll
            {
              OFFSET 0 7.09098 0
              CHANNELS 3 Zrotation Xrotation Yrotation
              JOINT LeftForeArm
              {
                OFFSET 0 20.6535 0
                CHANNELS 3 Zrotation Xrotation Yrotation
                JOINT LeftForeArmRoll
                {
                  OFFSET 0 7.95718 0
                  CHANNELS 3 Zrotation Xrotation Yrotation
                  JOINT LeftHand
                  {
                    OFFSET 0 15.9683 0
                    CHANNELS 3 Zrotation Xrotation Yrotation
                    End Site
                    {
                      OFFSET 0 0 0
                    }
                  }
                }
              }
            }
          }
        }
      }
    }
  }
  JOINT RightUpLeg
  {
    OFFSET -7.20834 -1.32182 -1.10884
    CHANNELS 3 Zrotation Xrotation Yrotation
    JOINT RightUpLegRoll
    {
      OFFSET 0 18.7238 0
      CHANNELS 3 Zrotation Xrotation Yrotation
      JOINT RightLeg
      {
        OFFSET 0 -23.1866 0
        CHANNELS 3 Zrotation Xrotation Yrotation
        JOINT RightLegRoll
        {
          OFFSET 0 23.2624 0
          CHANNELS 3 Zrotation Xrotation Yrotation
          JOINT RightFoot
          {
            OFFSET 0 19.3621 0
            CHANNELS 3 Zrotation Xrotation Yrotation
            JOINT RightToeBase
            {
              OFFSET 0 16.1857 0
              CHANNELS 3 Zrotation Xrotation Yrotation
              End Site
              {
                OFFSET 0.00686052 7.83863 -0.903522
              }
            }
          }
        }
      }
    }
  }
  JOINT LeftUpLeg
  {
    OFFSET 7.20834 -1.32182 -1.10884
    CHANNELS 3 Zrotation Xrotation Yrotation
    JOINT LeftUpLegRoll
    {
      OFFSET 0 18.7239 0
      CHANNELS 3 Zrotation Xrotation Yrotation
      JOINT LeftLeg
      {
        OFFSET 0 23.1865 0
        CHANNELS 3 Zrotation Xrotation Yrotation
        JOINT LeftLegRoll
        {
          OFFSET 0 23.4775 0
          CHANNELS 3 Zrotation Xrotation Yrotation
          JOINT LeftFoot
          {
            OFFSET 0 19.147 0
            CHANNELS 3 Zrotation Xrotation Yrotation
            JOINT LeftToeBase
            {
              OFFSET 0 16.1857 0
              CHANNELS 3 Zrotation Xrotation Yrotation
              End Site
              {
                OFFSET -0.0307459 7.83863 -0.903522
              }
            }
          }
        }
      }
    }
  }
}
MOTION
Frames: 8
Frame Time: 0.00208333
53.1829 65.566 21.4451 -0.550751 32.1431 1.19898 1.13913 2.90489 -0.182232 2.31519 9.8164 -0.574068 2.32988 11.4606 -0.614945 -10.1552 -19.6762 -5.69358 1.999 -0.605503 -5.30022 42.9691 -11.3736 -7.31491 118.203 19.009 -54.3404 -6.94764e-006 4.89108e-006 -5.64401e-006 -143.366 84.3786 134.363 -7.21531e-006 -5.57024e-006 -2.99999 8.02891 -4.95093 0.69742 -53.3965 -10.9602 6.87092 -113.467 23.8199 52.2064 -9.5512e-007 3.21862e-007 8.89489e-006 34.4778 79.4914 -30.6011 -2.4057e-006 -4.80675e-006 3.00001 -8.02895 -4.95145 -0.697691 35.4144 71.2043 147.334 180 1.52581e-005 179.446 161.119 75.9634 -167.965 -5.45647e-007 -1.92831e-007 1.37017 -20.7268 67.4532 19.0704 8.13649 25.2327 -3.48774 -35.2516 71.4553 -147.803 4.5067e-006 -1.99009e-005 -0.652925 -13.8527 -74.5582 -7.76314 3.90874e-006 8.85164e-006 -1.67367 18.2527 64.8821 -17.152 -8.1365 25.2327 3.48774 
53.1882 65.679 21.5208 -0.551816 32.2146 1.20027 1.13807 2.90126 -0.183429 2.31304 9.80922 -0.576431 2.32776 11.4535 -0.617276 -10.1515 -19.7847 -5.7016 1.98553 -0.606452 -5.29909 42.9947 -11.389 -7.32745 118.232 19.1958 -54.3468 -6.94764e-006 4.89108e-006 -5.64401e-006 -142.961 84.5944 134.121 -7.21531e-006 -5.57024e-006 -2.99999 8.02891 -4.95093 0.69742 -53.4143 -10.9533 6.86595 -113.483 23.9033 52.1548 -9.5512e-007 3.21862e-007 8.89489e-006 33.6051 79.3885 -29.8222 -2.4057e-006 -4.80675e-006 3.00001 -8.02895 -4.95145 -0.697691 35.5558 71.2995 147.158 180 1.52581e-005 179.448 161.181 75.8486 -168.036 -5.45647e-007 -1.92831e-007 1.36237 -20.726 67.4819 19.0958 8.13649 25.2327 -3.48774 -35.4522 71.5337 -147.578 4.5067e-006 -1.99009e-005 -0.650295 -13.9011 -74.44 -7.78813 3.90874e-006 8.85164e-006 -1.66591 18.2777 64.9374 -17.1899 -8.1365 25.2327 3.48774 
53.1769 65.7941 21.5924 -0.553612 32.284 1.20173 1.13711 2.89762 -0.18459 2.31106 9.80183 -0.578798 2.32579 11.4461 -0.619614 -10.1469 -19.8924 -5.70907 1.97053 -0.608899 -5.29762 43.0218 -11.4058 -7.34118 118.262 19.3853 -54.3539 -6.94764e-006 4.89108e-006 -5.64401e-006 -142.52 84.8149 133.846 -7.21531e-006 -5.57024e-006 -2.99999 8.02891 -4.95093 0.69742 -53.4312 -10.9453 6.8602 -113.501 23.986 52.0996 -9.5512e-007 3.21862e-007 8.89489e-006 32.7224 79.2807 -29.0358 -2.4057e-006 -4.80675e-006 3.00001 -8.02895 -4.95145 -0.697691 35.707 71.3976 146.98 180 1.52581e-005 179.45 161.222 75.7254 -168.09 -5.45647e-007 -1.92831e-007 1.3553 -20.7354 67.5039 19.1152 8.13649 25.2327 -3.48774 -35.6601 71.6136 -147.345 4.5067e-006 -1.99009e-005 -0.647637 -13.9466 -74.3209 -7.81062 3.90874e-006 8.85163e-006 -1.65811 18.3019 64.9922 -17.2276 -8.1365 25.2327 3.48774 
53.1703 65.9097 21.6689 -0.556138 32.351 1.20308 1.13627 2.89399 -0.185768 2.30924 9.79428 -0.581308 2.32398 11.4385 -0.622097 -10.1412 -19.9987 -5.7155 1.95399 -0.61273 -5.29538 43.0512 -11.4246 -7.35649 118.293 19.5813 -54.3637 -6.94764e-006 4.89108e-006 -5.64401e-006 -142.05 85.0406 133.546 -7.21531e-006 -5.57024e-006 -2.99999 8.02891 -4.95093 0.69742 -53.448 -10.9355 6.85323 -113.52 24.067 52.0383 -9.5512e-007 3.21862e-007 8.89489e-006 31.8329 79.1688 -28.2449 -2.4057e-006 -4.80675e-006 3.00001 -8.02895 -4.95145 -0.697691 35.869 71.499 146.8 180 1.52581e-005 179.451 161.244 75.5948 -168.13 -5.45647e-007 -1.92831e-007 1.34884 -20.7538 67.5202 19.1296 8.13649 25.2327 -3.48774 -35.8779 71.6951 -147.101 4.5067e-006 -1.99009e-005 -0.644959 -13.9897 -74.2008 -7.83109 3.90874e-006 8.85163e-006 -1.65027 18.3259 65.0468 -17.2654 -8.1365 25.2327 3.48774 
53.1627 66.0208 21.7432 -0.559301 32.4158 1.20437 1.13552 2.89035 -0.186963 2.30755 9.78653 -0.58394 2.32229 11.4308 -0.624706 -10.1347 -20.1037 -5.72104 1.93612 -0.617647 -5.29249 43.0828 -11.4451 -7.37315 118.323 19.7828 -54.3757 -6.94764e-006 4.89108e-006 -5.64401e-006 -141.542 85.2715 133.212 -7.21531e-006 -5.57024e-006 -2.99999 8.02891 -4.95093 0.69742 -53.4647 -10.9242 6.8452 -113.538 24.1467 51.9718 -9.5512e-007 3.21862e-007 8.89489e-006 30.9378 79.0526 -27.4507 -2.4057e-006 -4.80675e-006 3.00001 -8.02895 -4.95145 -0.697691 36.0409 71.6034 146.617 180 1.52581e-005 179.451 161.25 75.4577 -168.157 -5.45647e-007 -1.92831e-007 1.34293 -20.78 67.5316 19.1396 8.13649 25.2327 -3.48774 -36.105 71.7781 -146.848 4.5067e-006 -1.99009e-005 -0.642267 -14.0307 -74.0797 -7.84969 3.90874e-006 8.85164e-006 -1.64239 18.3496 65.101 -17.3031 -8.1365 25.2327 3.48774 
53.159 66.1404 21.821 -0.563011 32.4785 1.20567 1.13484 2.88667 -0.188174 2.30597 9.77857 -0.586675 2.32072 11.4228 -0.62742 -10.1273 -20.2079 -5.72585 1.91712 -0.623353 -5.28905 43.1161 -11.4668 -7.39093 118.354 19.9886 -54.3891 -6.94764e-006 4.89108e-006 -5.64401e-006 -140.984 85.5073 132.832 -7.21531e-006 -5.57024e-006 -2.99999 8.02891 -4.95093 0.69742 -53.4814 -10.9116 6.8363 -113.558 24.2255 51.9005 -9.5512e-007 3.21862e-007 8.89489e-006 30.0388 78.9318 -26.6545 -2.4057e-006 -4.80675e-006 3.00001 -8.02895 -4.95145 -0.697691 36.2222 71.7106 146.43 180 1.52581e-005 179.451 161.243 75.3148 -168.175 -5.45647e-007 -1.92831e-007 1.33748 -20.8128 67.5387 19.1457 8.13649 25.2327 -3.48774 -36.3409 71.8625 -146.585 4.5067e-006 -1.99009e-005 -0.639567 -14.0697 -73.9577 -7.86661 3.90874e-006 8.85164e-006 -1.63448 18.373 65.155 -17.3407 -8.1365 25.2327 3.48774 
53.1438 66.2623 21.8904 -0.567176 32.5393 1.20704 1.13423 2.88293 -0.189401 2.30447 9.77038 -0.589492 2.31924 11.4146 -0.630217 -10.1193 -20.3117 -5.73008 1.89721 -0.629552 -5.28519 43.1508 -11.4897 -7.40958 118.387 20.1978 -54.4031 -6.94764e-006 4.89108e-006 -5.64401e-006 -140.364 85.748 132.393 -7.21531e-006 -5.57024e-006 -2.99999 8.02891 -4.95093 0.69742 -53.498 -10.898 6.8267 -113.578 24.3038 51.8252 -9.5512e-007 3.21862e-007 8.89489e-006 29.137 78.806 -25.8578 -2.4057e-006 -4.80675e-006 3.00001 -8.02895 -4.95145 -0.697691 36.4121 71.8203 146.239 180 1.52581e-005 179.451 161.225 75.167 -168.184 -5.45647e-007 -1.92831e-007 1.33242 -20.8511 67.5422 19.1485 8.13649 25.2327 -3.48774 -36.5849 71.9484 -146.314 4.5067e-006 -1.99009e-005 -0.636867 -14.107 -73.8347 -7.882 3.90874e-006 8.85164e-006 -1.62653 18.3962 65.2086 -17.3782 -8.1365 25.2327 3.48774 
53.1388 66.3766 21.9683 -0.571706 32.5983 1.20854 1.13366 2.8791 -0.190646 2.30305 9.76193 -0.59237 2.31782 11.4062 -0.633077 -10.1106 -20.4153 -5.73391 1.87659 -0.635946 -5.28102 43.1865 -11.5134 -7.42888 118.422 20.4092 -54.417 -6.94764e-006 4.89108e-006 -5.64401e-006 -139.664 85.9933 131.877 -7.21531e-006 -5.57024e-006 -2.99999 8.02891 -4.95093 0.69742 -53.5146 -10.8837 6.81658 -113.598 24.3822 51.7466 -9.5512e-007 3.21862e-007 8.89489e-006 28.2339 78.6749 -25.0618 -2.4057e-006 -4.80675e-006 3.00001 -8.02895 -4.95145 -0.697691 36.6098 71.9322 146.044 180 1.52581e-005 179.45 161.199 75.0152 -168.187 -5.45647e-007 -1.92831e-007 1.32767 -20.8938 67.5427 19.1487 8.13649 25.2327 -3.48774 -36.8365 72.0356 -146.035 4.5067e-006 -1.99009e-005 -0.634172 -14.1427 -73.7108 -7.89604 3.90874e-006 8.85163e-006 -1.61856 18.4193 65.2619 -17.4156 -8.1365 25.2327 3.48774 
